<svg width="217" height="221" viewBox="0 0 217 221" fill="none" xmlns="http://www.w3.org/2000/svg">
<mask id="mask0_12823_84" style="mask-type:alpha" maskUnits="userSpaceOnUse" x="0" y="0" width="217" height="217">
<circle cx="108.5" cy="108.5" r="108.5" fill="url(#paint0_linear_12823_84)"/>
</mask>
<g mask="url(#mask0_12823_84)">
<path d="M217 108.5C217 168.423 168.423 217 108.5 217C48.5771 217 0 168.423 0 108.5C0 48.5771 48.5771 0 108.5 0C168.423 0 217 48.5771 217 108.5Z" fill="url(#paint1_linear_12823_84)"/>
</g>
<g clip-path="url(#clip0_12823_84)">
<path d="M170.213 104.53C170.213 107.358 171.256 109.74 173.043 111.527C174.98 113.313 177.214 114.206 179.746 114.206C182.427 114.206 184.81 113.313 186.747 111.378C188.683 109.442 189.577 107.209 189.577 104.53C189.577 101.85 188.683 99.4685 186.747 97.6822C184.959 95.7469 182.576 94.8537 179.895 94.8537C177.214 94.8537 174.831 95.7469 173.043 97.6822C171.256 99.4685 170.213 101.701 170.213 104.53ZM166.043 104.381C166.043 100.659 167.383 97.3844 170.213 94.7049C172.894 92.0253 176.171 90.6855 180.044 90.6855C183.768 90.6855 187.044 92.0253 189.726 94.7049C192.407 97.3844 193.747 100.659 193.747 104.53C193.747 108.4 192.407 111.675 189.726 114.355C187.044 117.035 183.768 118.374 179.895 118.374C176.469 118.374 173.341 117.183 170.66 114.802C167.532 112.122 166.043 108.698 166.043 104.381ZM149.658 90.6855V114.504H161.276V118.374H145.637V90.6855H149.658ZM124.337 90.6855V114.504H135.955V118.374H120.316V90.6855H124.337ZM87.2491 104.53C87.2491 107.358 88.2917 109.74 90.2281 111.527C92.1644 113.313 94.3986 114.206 96.9307 114.206C99.6118 114.206 101.995 113.313 103.931 111.378C105.868 109.442 106.761 107.209 106.761 104.53C106.761 101.85 105.868 99.4685 103.931 97.6822C102.144 95.7469 99.7608 94.8537 97.0797 94.8537C94.3986 94.8537 92.0154 95.7469 90.2281 97.6822C88.2917 99.4685 87.2491 101.701 87.2491 104.53ZM83.0785 104.381C83.0785 100.659 84.4191 97.3844 87.2491 94.7049C89.9302 92.0253 93.207 90.6855 97.0797 90.6855C100.803 90.6855 104.08 92.0253 106.761 94.7049C109.442 97.3844 110.783 100.659 110.783 104.53C110.783 108.4 109.442 111.675 106.761 114.355C104.08 117.035 100.803 118.374 96.9307 118.374C93.5049 118.374 90.377 117.183 87.6959 114.802C84.568 112.122 83.0785 108.698 83.0785 104.381ZM66.6942 103.339C69.0774 103.339 71.0137 101.404 71.0137 98.8731C71.0137 96.3424 69.0774 94.4072 66.6942 94.4072H61.63V103.339H66.6942ZM66.8432 90.6855C71.3116 90.6855 74.8864 94.2583 74.8864 98.5753C75.0353 103.19 71.1627 106.912 66.6942 106.912H61.63V118.374H57.6084V90.6855H66.8432ZM39.2877 118.374L35.564 126.413L31.6914 118.374H39.2877ZM44.203 118.374L35.564 99.4685L26.4782 118.374H22.1587L35.564 90.6855L48.5225 118.374C48.6715 118.374 44.203 118.374 44.203 118.374Z" fill="#070708"/>
</g>
<mask id="mask1_12823_84" style="mask-type:alpha" maskUnits="userSpaceOnUse" x="-9" y="-8" width="234" height="234">
<circle cx="108" cy="109" r="112.5" fill="#C4C4C4" stroke="#D8D8D8" stroke-width="9"/>
</mask>
<g mask="url(#mask1_12823_84)">
<path d="M216.972 112.789C216.972 172.436 168.618 220.789 108.972 220.789C49.3249 220.789 0.97168 172.436 0.97168 112.789C0.97168 53.1423 49.3249 4.78906 108.972 4.78906C168.618 4.78906 216.972 53.1423 216.972 112.789Z" fill="#F44238"/>
<path fill-rule="evenodd" clip-rule="evenodd" d="M143.897 144.435H105.693C104.817 144.435 104.106 145.146 104.106 146.023V152.31C104.094 153.187 104.794 153.908 105.671 153.92H105.693H151.782C152.655 153.92 153.363 153.212 153.363 152.338V152.333V130.097C153.367 129.223 152.661 128.513 151.788 128.51H151.782H145.484C144.608 128.51 143.897 129.22 143.897 130.097V144.435Z" fill="white"/>
<path fill-rule="evenodd" clip-rule="evenodd" d="M72.2296 73.2521H114.472C115.345 73.2555 116.055 72.5499 116.059 71.6759V71.6708V65.6254C116.049 64.7566 115.34 64.0577 114.472 64.0606H64.3562C63.4869 64.0577 62.7781 64.7566 62.769 65.6254V87.223C62.769 88.0998 63.4796 88.811 64.3562 88.811H70.6425C71.5191 88.811 72.2296 88.0998 72.2296 87.223V73.2521Z" fill="white"/>
<path fill-rule="evenodd" clip-rule="evenodd" d="M129.541 64.0606H151.777C152.651 64.0606 153.359 64.769 153.359 65.6424V86.9405C153.359 87.8145 152.651 88.5224 151.777 88.5224H145.485C144.612 88.5258 143.901 87.8201 143.898 86.9468V86.9405V80.3822L76.8554 144.457H90.6481C91.5247 144.457 92.2352 145.168 92.2352 146.045V152.332C92.2352 153.209 91.5247 153.92 90.6481 153.92H64.3562C63.4796 153.92 62.769 153.209 62.769 152.332V144.486L137.075 73.5069H129.541C128.664 73.5069 127.954 72.7956 127.954 71.9194V65.6254C127.963 64.7566 128.672 64.0577 129.541 64.0606Z" fill="white"/>
<mask id="mask2_12823_84" style="mask-type:alpha" maskUnits="userSpaceOnUse" x="0" y="1" width="216" height="216">
<circle cx="108" cy="109" r="108" fill="#C4C4C4"/>
</mask>
<g mask="url(#mask2_12823_84)">
<path d="M260.113 109C260.113 193.01 192.01 261.113 108 261.113C23.9902 261.113 -44.1133 193.01 -44.1133 109C-44.1133 24.9902 23.9902 -43.1133 108 -43.1133C192.01 -43.1133 260.113 24.9902 260.113 109Z" fill="#FF5722"/>
<path d="M123.537 98.4793C120.639 99.3134 117.445 99.3272 114.457 99.2009C110.983 99.0538 107.303 98.6143 104.094 97.1874C101.454 96.0138 99.3364 93.8961 100.445 90.8373C101.226 88.68 102.958 86.7529 104.961 85.6666C107.212 84.4446 109.685 84.6432 111.937 85.7476C114.466 86.9878 116.57 89.0051 118.476 91.0404C119.476 92.1078 120.43 93.2161 121.371 94.335C121.805 94.8497 124.749 97.7922 123.537 98.4793V98.4793ZM171.7 99.5309C167.244 98.4936 161.978 98.8652 157.511 98.1505C150.474 97.0241 139.992 88.8146 134.31 80.47C130.362 74.6718 128.478 68.7661 125.46 61.5699C123.353 56.5469 118.76 40.6597 112.337 48.096C109.692 51.1585 106.731 61.24 104.568 61.0979C102.966 61.4706 102.705 58.3465 102.198 57.0114C101.277 54.5869 100.789 51.7821 99.5558 49.4959C98.5701 47.6686 97.2759 45.4798 95.2937 44.5917C91.7623 42.7749 87.5046 48.2507 85.3917 54.744C84.4883 58.2258 78.415 64.9752 75.7701 66.6075C63.7359 74.0376 39.5827 81.8654 37.1193 107.931C37.1092 108.039 37.1193 108.368 37.5283 108.072C40.4088 105.985 73.0817 82.4394 52.1132 127.952C39.2673 155.835 101.29 173.591 104.478 173.664C104.908 173.673 104.876 173.478 104.891 173.349C109.84 128.845 158.735 133.53 170.121 122.872C181.405 112.311 181.635 102.088 171.7 99.5309" fill="white"/>
</g>
</g>
<defs>
<linearGradient id="paint0_linear_12823_84" x1="182.005" y1="30.5538" x2="59.204" y2="195.134" gradientUnits="userSpaceOnUse">
<stop stop-color="#EBEFF5"/>
<stop offset="1" stop-color="#F9FBFE"/>
</linearGradient>
<linearGradient id="paint1_linear_12823_84" x1="185" y1="34" x2="54.5" y2="197" gradientUnits="userSpaceOnUse">
<stop stop-color="#EBEFF5"/>
<stop offset="1" stop-color="#F9FBFE"/>
</linearGradient>
<clipPath id="clip0_12823_84">
<rect width="172.78" height="35.7274" fill="white" transform="translate(22.1587 90.6855)"/>
</clipPath>
</defs>
</svg>
