<?xml version="1.0" encoding="UTF-8" standalone="no"?>
<svg width="500px" height="186px" viewBox="0 0 500 186" version="1.1" xmlns="http://www.w3.org/2000/svg" xmlns:xlink="http://www.w3.org/1999/xlink">
    <!-- Generator: Sketch 42 (36781) - http://www.bohemiancoding.com/sketch -->
    <title>logo</title>
    <desc>Created with Sketch.</desc>
    <defs></defs>
    <g id="Page-1" stroke="none" stroke-width="1" fill="none" fill-rule="evenodd">
        <g id="logo" fill="#2AB77C">
            <path d="M496.149008,91.5217487 L494.3642,94.0913755 C491.56699,98.1216759 489.013914,101.521638 486.779456,104.196092 C484.54224,106.874683 482.496745,109.124313 480.695385,110.885673 C478.90644,112.63324 477.271975,114.037362 475.834749,115.063558 C475.288549,115.452519 474.75752,115.82355 474.236146,116.168373 C475.194756,109.969821 476.140953,104.125748 477.070598,98.6196014 C477.500938,95.9230795 477.949209,93.2155231 478.419548,90.4969324 C478.892647,87.7783418 479.353331,85.1976806 479.800223,82.7577075 C480.249873,80.3191137 480.6678,78.1370688 481.051244,76.2143314 C481.434688,74.2998698 481.753305,72.7909209 482.001578,71.706795 C482.157438,71.080595 482.236058,70.5288769 482.236058,70.0254342 C482.236058,67.8709752 481.161587,66.7261603 480.25677,66.1468563 C478.26093,64.8641118 475.34372,64.738596 472.234789,65.7041026 C470.869287,66.1289255 469.545164,66.771677 468.29966,67.6158056 C467.051398,68.4654514 465.927273,69.528888 464.964525,70.7730122 C463.970053,72.0585152 463.269371,73.5426368 462.883168,75.1826187 L458.352184,94.2458566 C458.188048,95.5520491 457.822534,97.2168583 457.266678,99.1989054 C456.71634,101.16578 455.974279,103.102311 455.068082,104.953325 C454.188092,106.754684 453.142586,108.30915 451.953634,109.578101 C450.9233,110.674641 449.837795,111.208428 448.632291,111.208428 C447.946781,111.208428 447.415753,111.058085 447.012998,110.747743 C446.535762,110.380851 446.159215,109.909132 445.865425,109.300863 C445.54267,108.636043 445.312328,107.859499 445.184053,106.991923 C445.041986,106.051244 444.973021,105.069185 444.973021,104.071955 C444.973021,102.077494 445.142674,99.7326926 445.477843,97.0996182 C445.814391,94.4417165 446.272317,91.6955399 446.841966,88.9328118 C447.415753,86.1521528 448.079194,83.4128727 448.815737,80.7866948 C449.548143,78.1715512 450.302617,75.8653698 451.054333,73.9440117 C451.341227,73.2253989 451.548121,72.5357513 451.672257,71.8943791 C451.799153,71.2447311 451.858462,70.6433584 451.858462,70.0916404 C451.858462,67.5371858 450.670889,66.168925 449.6709,65.4710017 C446.924724,63.5496436 442.837872,63.6613665 438.970329,65.7785845 C436.888972,66.9151237 435.272438,68.5909673 434.155209,70.7785293 C432.810397,73.5122923 431.603513,76.2446759 430.569042,78.8984397 C429.522157,81.5811688 428.638029,84.400448 427.940105,87.2762783 C427.243561,90.1521087 426.704257,93.2169024 426.334606,96.3823847 C426.184263,97.6678878 426.134608,99.1161477 426.084954,100.56027 L426.049092,101.540949 C426.042195,101.546466 426.03254,101.554741 426.024265,101.560259 C425.858749,101.685775 425.694613,101.81129 425.547028,101.9106 C424.404972,102.670591 423.218778,103.422307 421.993964,104.162989 C420.785702,104.891256 419.609163,105.539525 418.46021,106.102277 C417.340222,106.651237 416.271269,107.093991 415.289211,107.411229 C414.378876,107.710536 413.577505,107.860879 413.147165,107.909154 C413.145786,107.909154 413.054752,107.852603 412.887858,107.641571 C412.578896,107.248472 412.274071,106.685719 411.980282,105.967107 C411.668561,105.207115 411.399598,104.328504 411.18029,103.354722 C410.969258,102.405767 410.861673,101.411295 410.861673,100.401651 L410.846501,99.6995895 C410.969258,98.8775296 411.133394,98.0375389 411.33753,97.1754794 C411.548562,96.2858341 411.762353,95.4541191 411.969247,94.6761967 C412.176142,93.9106879 412.39407,93.2003509 412.621654,92.5410478 C412.831307,91.9231236 413.034063,91.4210602 413.223027,91.0445126 C415.177488,87.2197272 417.302981,83.2404608 419.538819,79.2115397 C421.795346,75.1508949 424.042217,71.0254232 426.276676,66.8351246 C428.49872,62.6655154 430.673868,58.396597 432.737294,54.1428508 C434.797961,49.8918633 436.646216,45.5746695 438.225509,41.3112683 C439.807561,37.0437292 441.08065,32.7389491 442.010295,28.5196853 C442.949595,24.2618012 443.425452,20.0177101 443.425452,15.9032728 C443.425452,14.0370865 443.280626,12.179176 442.990974,10.3791958 C442.691667,8.51163022 442.162018,6.81095933 441.417198,5.32132059 C440.631,3.74754485 439.530322,2.46342109 438.144131,1.4992938 C436.71794,0.504822016 434.919339,0 432.799362,0 C429.850429,0 426.923565,0.891024651 424.098769,2.64962594 C421.370523,4.34891753 418.729173,6.7061329 416.250579,9.65368658 C413.807848,12.5543442 411.443736,16.0012027 409.220312,19.8963322 C407.014819,23.7680136 404.944497,27.9831395 403.068656,32.4286077 C401.195573,36.8713173 399.488006,41.5691965 397.999746,46.3939708 C396.518383,51.2104694 395.220467,56.0724847 394.144616,60.8476044 C393.067387,65.6351378 392.234293,70.3454307 391.677057,74.84745 C391.115684,79.3618829 390.83017,83.6114912 390.83017,87.4652418 C390.83017,92.5024276 391.26051,97.3796151 392.108777,101.957496 C392.137742,102.134045 392.176362,102.298182 392.214982,102.45818 L391.943261,102.718867 C390.969479,103.565754 389.983283,104.391952 388.986053,105.19746 C388.024684,105.975382 387.066074,106.671926 386.144705,107.269161 C385.232991,107.853982 384.380586,108.332598 383.60956,108.688456 C382.962671,108.985004 382.391643,109.142244 381.957165,109.142244 C381.599927,109.142244 380.765454,109.142244 380.104771,107.436056 C379.50064,105.884349 379.198574,103.842992 379.198574,101.364399 C379.198574,99.8361397 379.292366,98.1258138 379.48133,96.2913513 C379.671673,94.425165 379.914429,92.5410478 380.212356,90.6321034 C380.510284,88.7204003 380.835798,86.8500761 381.199932,85.0225101 L382.198541,79.9356697 C382.501986,78.3798248 382.74888,77.0405292 382.943361,75.9191623 C383.151634,74.7205548 383.255081,73.8667711 383.255081,73.305398 C383.255081,69.8585395 382.53371,67.0820184 381.107519,65.0572132 C379.57926,62.8806855 377.482731,61.7758701 374.877243,61.7758701 C372.53382,61.7758701 370.364189,62.2558648 368.426279,63.2006819 C366.431819,64.1744643 364.658045,65.953755 363.147717,68.5026924 C362.844272,69.0213074 362.391863,69.8199192 361.784973,70.9026659 C361.179463,71.9854126 360.509125,73.2309161 359.772582,74.6391764 C359.048452,76.0239887 358.26915,77.4736279 357.438814,78.9894732 C356.600203,80.5163529 355.811246,81.9715093 355.08022,83.3494251 L353.769889,85.8183634 C353.798855,85.6376757 353.829199,85.4542295 353.858164,85.2680246 C354.051266,84.0845894 354.256781,82.7935692 354.469192,81.3949639 L355.081599,77.3315605 C355.278838,76.0088165 355.440216,74.7950367 355.56987,73.6874628 C355.70642,72.5288549 355.771247,71.6047271 355.771247,70.9233553 C355.771247,68.3123497 355.244356,66.1606493 354.205747,64.5275638 C353.041622,62.7013771 351.031989,61.7744908 348.23202,61.7744908 C345.558946,61.7744908 343.383797,62.5786198 341.775539,64.159292 C340.245901,65.6654823 339.201774,67.5537373 338.672125,69.7688853 C338.067994,72.3081676 337.436277,75.4074438 336.790766,78.9811974 C336.319048,81.5949617 335.909397,84.3480348 335.506643,87.1176594 C333.979763,88.0155805 332.470814,88.7728135 330.912211,89.4224615 C329.029473,90.2059012 327.190872,90.6045175 325.450202,90.6045175 C324.939863,90.6045175 324.466765,90.5107254 324.007459,90.321762 C323.597809,90.1507294 323.229537,89.8555602 322.879196,89.4128065 C322.49851,88.9314325 322.178514,88.2541986 321.930241,87.3990356 C321.668175,86.4997352 321.534383,85.3273343 321.534383,83.919074 C321.534383,83.0887383 321.635072,82.0239225 321.839207,80.7535917 C322.051619,79.4115375 322.286099,78.0267252 322.542648,76.5991548 C322.801955,75.1522742 323.037815,73.7757376 323.255743,72.4585108 C323.483327,71.0695606 323.59505,69.9992276 323.59505,69.1813056 C323.59505,68.0461457 323.381259,67.00064 322.956436,66.075133 C322.534372,65.1537638 321.957827,64.3620484 321.241973,63.7261934 C320.534394,63.0972348 319.704058,62.6062057 318.771655,62.2724163 C317.855803,61.9400062 316.899951,61.7717322 315.927548,61.7717322 C313.297233,61.7717322 310.931741,62.4944828 308.904178,63.9192947 C306.996612,65.2585903 305.272494,66.9247788 303.780096,68.8709642 C302.320802,70.7702536 301.020127,72.8447134 299.912553,75.0364134 C299.516695,75.8184737 299.137389,76.5715689 298.770496,77.2984574 C298.759462,76.4543288 298.751186,75.6033037 298.751186,74.74952 L298.751186,68.9895836 C298.751186,67.613047 298.719462,66.5220246 298.651877,65.724792 C298.566361,64.6875621 298.301536,63.8820537 297.84361,63.2586123 C297.326374,62.5620683 296.5719,62.1234524 295.59398,61.9537991 C294.882263,61.8324212 293.955377,61.7731115 292.758149,61.7731115 C291.708505,61.7731115 290.802308,61.8338005 290.064385,61.9510405 C289.19543,62.0931079 288.438197,62.3882771 287.817514,62.8324101 C287.220279,63.2586123 286.697526,63.8351577 286.25891,64.5454947 C285.861673,65.1896255 285.485126,66.0089268 285.122371,67.0116744 C284.545826,68.4764858 283.965142,70.3509479 283.396873,72.5798888 C282.8355,74.7853817 282.275506,77.2046653 281.709995,79.8418776 C281.150001,82.4763313 280.618972,85.2514731 280.125185,88.1645444 C279.627259,91.0776157 279.194161,93.9410324 278.830027,96.7437601 C278.601064,98.4885684 278.439686,100.105102 278.278309,101.721636 L278.274171,101.765774 C277.329354,102.470593 276.166608,103.309205 274.911449,104.103679 C273.374914,105.084358 271.837,105.972624 270.347362,106.749167 C268.88393,107.511917 267.494979,108.125703 266.214993,108.568457 C264.267429,109.24845 262.650895,109.375345 262.1709,108.942246 C261.911593,108.707766 261.711595,108.338115 261.566769,107.837431 C261.380564,107.1933 261.268841,106.415377 261.232979,105.517456 C261.191601,104.522985 261.168153,103.440238 261.168153,102.259561 C261.168153,101.862324 261.232979,100.980955 261.539183,99.0264935 C261.797111,97.3851323 262.125383,95.4775671 262.530896,93.3065566 L263.850882,86.2266347 C264.32398,83.6887317 264.762596,81.2266899 265.172246,78.8418886 C265.584656,76.4419151 265.918445,74.2322843 266.177753,72.221272 C266.439819,70.178536 266.576369,68.5275197 266.576369,67.3164986 C266.576369,66.1440977 266.126719,64.4765299 263.984673,63.1896476 C262.489517,62.294485 260.503332,61.8393176 258.071635,61.8393176 C255.951658,61.8393176 254.016507,62.2393132 252.317216,63.0255114 C250.39172,63.9220533 249.257939,65.12204 248.953115,66.6061616 L242.582151,99.2899389 C242.266292,100.876128 241.787677,102.307837 241.158718,103.543685 C240.535277,104.774016 239.820802,105.811246 239.038742,106.630548 C238.269095,107.436056 237.453932,108.058118 236.613941,108.476044 C235.433264,109.066383 234.171209,109.340862 233.455355,108.820868 C233.146393,108.594664 232.89812,108.300874 232.693984,107.924326 C232.455366,107.481573 232.27192,106.965716 232.150542,106.389171 C232.019509,105.775385 231.953303,105.121599 231.947785,104.576777 C231.964337,104.437468 232.058129,103.801613 232.229162,102.656798 C232.422263,101.374054 232.688467,99.6871759 233.030532,97.589268 L234.18914,90.4100369 C234.618101,87.732825 235.06913,84.9783727 235.53947,82.1494384 C236.011189,79.3163662 236.474632,76.5039834 236.924282,73.7122901 C237.372553,70.9274932 237.791859,68.4006245 238.197372,65.9027211 C238.197372,65.0199722 237.80979,63.775848 235.964293,62.8517203 C234.791892,62.2641405 233.008463,61.934489 230.422285,61.8420762 C228.812648,61.8903516 227.33956,62.3303467 226.041644,63.1413722 C224.814071,63.9110189 223.729945,64.9096286 222.818231,66.108236 C221.945137,67.2585682 221.178249,68.5578642 220.538256,69.9771589 C219.918953,71.3481782 219.392062,72.716439 218.968618,74.0502174 C218.547933,75.3812372 218.211385,76.6253614 217.970009,77.7467283 C217.723115,78.8832675 217.557599,79.7880851 217.4776,80.4032507 C216.437612,86.2873237 215.561759,91.5217487 214.819699,96.2334209 C214.730044,96.3216958 214.64039,96.4141085 214.552115,96.5010041 C214.336945,96.7147949 214.121775,96.9327235 213.880399,97.1409971 C212.334209,98.4582239 210.691468,99.729934 208.992177,100.925783 C207.298402,102.118873 205.557732,103.231964 203.817061,104.23885 C202.087425,105.241597 200.412961,106.118829 198.839185,106.853993 C197.294375,107.573985 195.85577,108.147772 194.56337,108.558802 C193.348211,108.942246 192.350981,109.139485 191.596507,109.139485 C190.312383,109.139485 189.14412,108.939488 188.122062,108.551906 C187.162073,108.183634 186.368978,107.605709 185.701399,106.779511 C185.011752,105.925728 184.468309,104.783671 184.091762,103.387825 C183.695904,101.923013 183.494527,100.069241 183.494527,97.8858164 C183.494527,96.9934125 183.505561,96.0182508 183.524871,94.9520557 C183.54694,93.8886192 183.578664,92.7810452 183.620043,91.630713 L183.87935,84.6969964 C183.999349,82.2666784 184.140037,79.801878 184.300035,77.2943195 C185.305541,76.0446781 186.391047,74.6557279 187.55793,73.1343654 C188.691711,71.6530024 189.818595,70.1454329 190.934445,68.6144153 L214.954869,68.6144153 C216.378302,68.6144153 217.669322,67.9882153 218.790689,66.7523669 C219.878953,65.556518 220.43205,64.014466 220.43205,62.1703485 C220.43205,60.7262265 220.192053,59.4931366 219.720334,58.4986648 C219.120341,57.2379891 218.048628,56.5055834 216.705195,56.4366186 C215.968651,56.3924812 215.037627,56.3511023 213.910743,56.3055856 L210.299748,56.1773111 C209.018383,56.1359323 207.69426,56.0821398 206.327378,56.0173129 C204.950842,55.952486 203.668097,55.8986935 202.486042,55.8559354 C201.477777,55.8186944 200.57158,55.7911085 199.763313,55.7690398 C200.877783,53.9525081 201.953634,52.1166663 202.977071,50.287721 C204.392227,47.759473 205.63911,45.2367422 206.680478,42.7829762 C207.731501,40.3099 208.57563,37.8423411 209.192174,35.4506433 C209.816995,33.0106702 210.135612,30.6548342 210.135612,28.4493412 C210.135612,25.8604043 209.828029,23.3335356 209.225278,20.9432172 C208.615629,18.5197956 207.724604,16.3653367 206.581169,14.5363913 C205.411526,12.6660671 203.968784,11.1433253 202.298457,10.0123033 C200.55227,8.83300598 198.596429,8.2343919 196.483349,8.2343919 C193.254419,8.2343919 190.164798,9.65368658 187.297244,12.4508971 C184.589687,15.090868 182.068336,18.62876 179.802154,22.9625052 C177.567696,27.2328029 175.52496,32.1748174 173.729117,37.6478604 C172.04086,42.7940105 170.61329,48.1691237 169.483647,53.6380288 C169.312614,53.6407874 169.123651,53.643546 168.915377,53.643546 L168.290557,53.6366495 C167.158155,53.6145808 165.875411,53.5842363 164.445082,53.5414782 C163.4713,53.512513 162.465793,53.49872 161.432701,53.49872 L159.880994,53.5083751 C158.253426,53.5318231 156.734822,53.6545804 155.36932,53.8807848 C153.918302,54.1194028 152.693488,54.5014676 151.725222,55.0228411 C150.454892,55.7069715 149.75421,56.8297177 149.75421,58.1841856 C149.75421,58.602112 149.777658,59.0986582 149.823174,59.6752036 C149.881105,60.3910578 150.082482,61.0862225 150.424547,61.7400084 C150.787302,62.4379317 151.352813,63.0406837 152.107287,63.5372299 C152.84521,64.0213625 153.813475,64.3317039 155.083806,64.4903229 C157.383091,64.7454925 159.141692,64.9592832 160.354093,65.1289365 C161.549942,65.2958312 162.538896,65.4544502 163.31406,65.6006554 C164.0975,65.74824 164.84094,65.8985832 165.536104,66.0447885 C166.000927,66.1440977 166.585748,66.2461656 167.289189,66.3551299 C166.982985,68.8130338 166.73747,71.3067994 166.555404,73.7881513 C166.338854,76.7246706 166.22989,79.5287776 166.22989,82.1232317 C166.22989,86.3066339 166.446439,90.4472778 166.893331,94.7313685 C165.276797,96.3010063 163.286474,97.9823671 160.974775,99.7368305 C158.631353,101.516121 156.104484,103.18231 153.465893,104.692638 C150.841094,106.193311 148.105952,107.456745 145.343224,108.456734 C142.654978,109.426379 140.071558,109.920166 137.664688,109.920166 C136.958489,109.920166 136.299186,109.847064 135.700572,109.702238 C135.151612,109.567067 134.613687,109.328449 134.107486,108.990521 C133.580595,108.637422 133.044049,108.127083 132.5144,107.46778 C132.223369,107.105025 131.925441,106.692616 131.623375,106.231931 C134.817823,105.223666 137.839858,103.900922 140.630172,102.292664 C143.919791,100.393375 146.79838,98.1947785 149.188699,95.7617019 C151.596948,93.3106945 153.51003,90.65831 154.876912,87.8790303 C156.271379,85.0418202 156.978957,82.1563348 156.978957,79.2984353 C156.978957,76.6777746 156.507239,74.2640081 155.577594,72.1288593 C154.647949,69.9881932 153.33486,68.1344206 151.678326,66.6158167 C150.035586,65.112385 148.079745,63.9275705 145.863218,63.0944762 C143.664622,62.2696577 141.250855,61.8517313 138.692263,61.8517313 C135.559883,61.8517313 132.660605,62.4200009 130.075806,63.5399885 C127.526869,64.6448039 125.193101,66.1551321 123.136572,68.0309735 C121.100733,69.8875047 119.300753,72.0612738 117.783528,74.4943504 C116.284234,76.8970825 115.0208,79.4570543 114.026328,82.1053009 C113.037373,84.7425132 112.289795,87.4776554 111.804284,90.2334871 C111.32153,92.9755258 111.078774,95.6196345 111.078774,98.0927107 C111.078774,101.775429 111.607044,105.343665 112.651171,108.696732 C112.853927,109.354655 113.114614,109.967062 113.383576,110.571194 C112.040143,111.44015 110.887052,112.106349 109.808443,112.641516 C108.066394,113.500817 106.347792,114.175292 104.698155,114.644252 C101.608534,115.521484 98.8802882,115.755964 97.4499592,114.291153 C96.6403129,113.463576 95.9506654,112.321519 95.397568,110.89119 C94.8030918,109.356035 94.2830976,107.540882 93.8513782,105.498146 C93.3975901,103.364377 92.8913888,101.134056 92.3300157,98.8030477 C91.765884,96.4596253 91.0720985,94.0417209 90.270728,91.6155408 C89.4500474,89.1245338 88.321784,86.7204224 86.9162823,84.4680335 C85.4997462,82.1977137 83.7121797,80.114978 81.6046168,78.273619 C80.6073864,77.4046631 79.4929159,76.6074305 78.2667226,75.8860592 C81.34393,75.5012358 84.2238982,74.9398627 86.8652484,74.207457 C90.8845144,73.0916073 94.5272328,71.6819676 97.6899565,70.0130205 C100.874749,68.3316598 103.644374,66.4006466 105.929866,64.2696356 C108.20984,62.1469004 110.113268,59.9027873 111.586355,57.6062609 C113.064959,55.3014587 114.17943,52.9221747 114.896663,50.5415113 C115.618035,48.1511928 115.984927,45.8325977 115.984927,43.6477942 C115.984927,40.323693 115.434588,37.1940723 114.350462,34.3485865 C113.275991,31.5251694 111.786353,28.9196809 109.922925,26.6093616 C108.067773,24.3086973 105.830556,22.2397546 103.270585,20.4590846 C100.732682,18.6949661 97.9478847,17.194293 94.990676,16.0012027 C92.0445016,14.8163882 88.9052259,13.9032949 85.6611237,13.2895085 C82.4184009,12.6743429 79.1080926,12.3640015 75.8184737,12.3640015 C68.4709686,12.3640015 61.4007018,13.3584733 54.8049125,15.3170724 C48.2187783,17.2742921 42.0422947,20.0425375 36.4506323,23.5445678 C30.8631077,27.0438395 25.7597158,31.2562068 21.2797652,36.061671 C16.8053318,40.8629974 12.9391676,46.2050074 9.7902368,51.9401165 C6.63992673,57.6697085 4.19443648,63.8503299 2.52135149,70.3054311 C0.848266502,76.7563944 0,83.4432172 0,90.176936 C0,93.9203429 0.297927747,97.734094 0.884128175,101.51888 C1.47308719,105.310562 2.35583607,109.030521 3.51030609,112.57531 C4.67029329,116.142167 6.14613908,119.528336 7.89784389,122.637267 C9.66472094,125.775164 11.768146,128.56134 14.1419129,130.915797 C16.5391278,133.289564 19.2687529,135.188853 22.2549268,136.561252 C25.2742039,137.944685 28.6383047,138.648125 32.2492993,138.648125 C37.1968309,138.648125 41.4464392,137.150211 44.8808841,134.199898 C48.227054,131.325447 51.0366782,127.147563 53.2338954,121.777967 C55.3842165,116.518714 57.1331627,110.045682 58.4310794,102.540937 C59.6627899,95.421016 60.7096749,87.3066228 61.5482864,78.4115486 L64.3634277,78.4115486 C65.6006554,78.4115486 66.579955,78.9687838 67.444773,80.1646327 C68.4723479,81.5866859 69.3813034,83.5163198 70.1468122,85.8969832 C70.9426655,88.3645422 71.6764505,91.2293382 72.3302364,94.4099927 C72.9964359,97.6568534 73.7178073,100.983713 74.4929711,104.380917 C75.2695143,107.80019 76.1895041,111.180842 77.2239755,114.434599 C78.2818948,117.761459 79.6253283,120.77384 81.2197934,123.386225 C82.8542582,126.063437 84.8763048,128.259274 87.2321409,129.906153 C89.6638382,131.608203 92.6210469,132.468883 96.023768,132.468883 C98.8954605,132.468883 101.754739,132.154404 104.525743,131.532342 C107.249851,130.924073 109.87465,130.147529 112.329795,129.228919 C114.776665,128.310308 117.048364,127.303423 119.082824,126.228952 C121.097974,125.166895 122.842782,124.191733 124.322766,123.302088 C124.682762,123.539326 125.049655,123.773807 125.45103,123.964149 C128.649615,125.504822 132.412332,126.288262 136.628837,126.288262 C139.289497,126.288262 141.958434,125.984817 144.559784,125.384823 C147.13217,124.790347 149.649383,123.988977 152.046598,123.001401 C154.431399,122.015205 156.740339,120.87177 158.908591,119.601439 C161.053395,118.343522 163.085097,117.045605 164.959559,115.740792 C166.725057,114.488392 168.51952,113.088407 170.405016,111.495321 C170.698806,112.360139 171.009147,113.213923 171.363626,113.998742 C173.119469,117.891113 175.352548,120.9297 178.000794,123.031746 C180.723523,125.190343 183.908315,126.285503 187.468276,126.285503 C189.179981,126.285503 191.10134,125.962748 193.177179,125.326893 C195.178536,124.711727 197.494372,123.775186 200.057103,122.548993 C202.574316,121.343489 205.490146,119.81523 208.725973,118.004215 C210.251473,117.147673 211.916282,116.201476 213.66247,115.202867 C213.803158,116.27182 213.986604,117.1725 214.225222,117.95594 C214.83625,119.95178 215.695551,121.602796 216.782436,122.856575 C217.892768,124.140699 219.192064,125.068965 220.641703,125.617924 C223.694083,126.78067 227.291285,126.670326 230.917452,125.262066 C232.831914,124.515867 234.747755,123.481396 236.609803,122.180721 C238.451162,120.892459 240.273211,119.361442 242.031812,117.624909 C243.1518,116.514576 244.24696,115.329762 245.302121,114.085638 C245.57798,115.085627 245.878666,116.035961 246.198663,116.928365 C246.816587,118.646967 247.591751,120.155916 248.499327,121.413833 C249.448282,122.73106 250.604131,123.771048 251.932392,124.508971 C254.548915,125.964127 258.246806,125.913093 262.368139,124.932415 C264.311566,124.468971 266.29913,123.844151 268.271523,123.075883 C270.239777,122.308995 272.221824,121.413833 274.162492,120.409706 C275.547304,119.691093 276.892117,118.944894 278.167965,118.184903 C278.406583,119.324201 278.747269,120.38212 279.185885,121.343489 C279.861739,122.826231 280.852073,124.027597 282.121025,124.918622 C283.423079,125.827577 285.115475,126.288262 287.149935,126.288262 C288.101649,126.288262 288.99819,126.110333 289.817492,125.757233 C290.657482,125.388961 291.438163,124.773796 292.131949,123.920012 C292.752632,123.155882 293.360901,122.169686 293.940205,120.98901 C294.496061,119.85385 295.090537,118.409728 295.704323,116.702161 L306.111105,87.6845497 C306.370412,89.2762563 306.662823,90.8610664 306.995233,92.4224284 C307.578675,95.1796394 308.490389,97.7092667 309.706927,99.9340697 C310.967603,102.245768 312.697239,104.139541 314.84894,105.564352 C317.037881,107.01675 319.909573,107.754673 323.384018,107.754673 C325.31641,107.754673 327.239148,107.463642 329.095679,106.889855 C330.588076,106.42917 332.055646,105.870556 333.463907,105.222287 C333.30115,107.587778 333.22253,109.649825 333.22253,111.480149 C333.22253,113.235992 333.323219,114.968387 333.521837,116.626299 C333.732869,118.373866 334.160451,119.958676 334.796306,121.342109 C335.47216,122.822093 336.459736,124.026218 337.730066,124.917242 C339.030742,125.826198 340.724516,126.288262 342.757597,126.288262 C344.416889,126.288262 345.907907,125.897921 347.190652,125.128274 C348.506499,124.340697 349.626487,122.973815 350.601649,120.9697 L365.175281,92.0445016 C364.976662,93.5300024 364.800113,94.9686072 364.640114,96.3575574 C364.291153,99.3823516 364.114603,102.24163 364.114603,104.84574 C364.114603,111.677388 364.947697,116.76147 366.659402,120.390396 C368.504899,124.303456 370.921424,126.284124 373.841392,126.284124 C376.326882,126.284124 378.733752,125.928266 380.998554,125.224825 C383.216461,124.537936 385.376437,123.638636 387.413656,122.551751 C389.438461,121.471763 391.408095,120.235915 393.271523,118.877309 C394.43151,118.031801 395.573566,117.183535 396.707347,116.335268 C398.05078,119.008342 399.510074,121.139353 401.151436,122.816576 C403.403825,125.115861 405.905866,126.281365 408.591353,126.281365 C410.151336,126.281365 411.838214,126.064816 413.611988,125.631717 C415.336107,125.209653 417.126432,124.638625 418.933308,123.936563 C420.733288,123.233123 422.536027,122.426235 424.298766,121.533831 C426.05185,120.645565 427.749763,119.750403 429.41871,118.829034 C429.443537,118.812482 429.468364,118.800068 429.494571,118.783517 C429.941463,119.602818 430.425595,120.429016 431.10145,121.135215 C432.72488,122.82761 434.618652,124.144837 436.727595,125.046896 C441.270993,126.991702 446.166111,126.904807 451.196401,124.368283 C452.597764,123.662084 453.979818,122.830369 455.328769,121.878655 L454.898429,123.368294 C451.908117,125.827577 448.913667,128.439962 445.995079,131.132346 C442.960629,133.926798 440.017214,136.805387 437.248968,139.682597 C434.465551,142.570841 431.854545,145.514256 429.483537,148.421811 C427.100115,151.347295 425.011862,154.202436 423.279467,156.914131 C421.525004,159.65479 420.120881,162.305795 419.112617,164.789906 C418.061594,167.36367 417.531944,169.736058 417.531944,171.835345 C417.531944,174.851864 418.067111,177.323561 419.122272,179.195264 C420.174674,181.06145 421.530521,182.522124 423.15671,183.541423 C424.737382,184.533136 426.482191,185.200715 428.338722,185.527608 C430.10284,185.842087 431.775925,186.000706 433.308322,186.000706 C437.160693,186.000706 440.735826,185.32761 443.933032,183.99659 C447.115066,182.673846 450.030896,180.803522 452.600523,178.435272 C455.15084,176.083574 457.45978,173.236709 459.468033,169.971918 C461.45146,166.749884 463.237647,163.160958 464.783837,159.309966 C466.321751,155.482422 467.672081,151.305917 468.797586,146.914241 C469.866539,142.740494 470.811357,138.395714 471.60721,133.998521 C475.63751,131.510273 479.456778,128.911681 482.968464,126.268952 C484.527067,125.09793 486.114636,123.856564 487.739446,122.536579 C489.364255,121.216593 490.946307,119.830402 492.44698,118.418004 C493.947653,117.006985 495.3435,115.567001 496.591762,114.13943 C497.868989,112.684274 498.925529,111.237393 499.736555,109.840167 L500,109.385 L496.149008,91.5217487 L496.149008,91.5217487 Z M438.461369,169.571922 C437.064143,170.483636 435.633814,170.92639 434.087624,170.92639 C432.930395,170.92639 432.873844,170.556739 432.873844,169.904332 C432.873844,169.1071 433.162117,168.034008 433.729007,166.708505 C434.340035,165.283693 435.193819,163.715435 436.261393,162.050626 C437.340002,160.367886 438.625505,158.573423 440.08204,156.716891 C441.528921,154.871395 443.086145,153.050725 444.708196,151.29902 C446.315075,149.565246 447.993677,147.918368 449.697107,146.402522 C450.392272,145.784598 451.084678,145.202536 451.774325,144.649438 C451.593638,145.368051 451.396398,146.11425 451.181228,146.892172 C450.593649,149.031459 449.872277,151.254883 449.030907,153.498996 C448.190917,155.747247 447.215755,157.959636 446.133008,160.082372 C445.062675,162.180279 443.864068,164.07681 442.573047,165.715413 C441.324785,167.307119 439.938594,168.603657 438.461369,169.571922 L438.461369,169.571922 Z M419.708472,48.0670558 C417.798148,52.5649372 415.744378,56.999371 413.599574,61.2420828 C412.440966,63.5344713 411.311323,65.7165162 410.216163,67.771666 C410.362368,65.5151391 410.595469,63.2241299 410.915466,60.9138106 C411.508563,56.615927 412.323726,52.3883874 413.33337,48.348432 C414.343014,44.2988215 415.512656,40.4230022 416.802297,36.8285591 C418.083663,33.2589433 419.442268,30.0907024 420.84777,27.410732 C422.225686,24.7790369 423.611877,22.6742326 424.967724,21.1556286 C425.793922,20.2315009 426.56219,19.6218524 427.238044,19.3515106 C427.294595,20.1846049 427.323561,21.1763181 427.329078,22.2052722 C426.955289,25.9955752 426.061506,30.1610465 424.680831,34.5789288 C423.287743,39.0381899 421.613279,43.5746916 419.708472,48.0670558 L419.708472,48.0670558 Z M195.076468,25.3735131 C195.567497,25.3735131 195.950941,25.4590294 196.14956,25.6093726 C196.408867,25.8093704 196.595072,26.0466091 196.71645,26.3362611 C196.880586,26.7321188 196.988171,27.1597003 197.037826,27.6052126 C197.097135,28.1307241 197.124721,28.6065809 197.124721,29.0327831 C197.124721,30.2534593 196.781277,31.8796482 196.104043,33.8727297 C195.393706,35.9664997 194.479233,38.2519917 193.385452,40.6685168 C192.288913,43.0933176 191.037892,45.5953589 189.665493,48.1070554 C188.4393,50.3511685 187.257244,52.451835 186.115188,54.4131927 C185.730364,54.3704345 185.349679,54.3290557 184.980028,54.2918147 C184.843478,54.2780218 184.706927,54.2628495 184.568998,54.2490566 C185.247611,51.2463311 185.982775,48.1649858 186.774491,45.0036413 C187.682067,41.3678194 188.668263,37.9940635 189.702734,34.9789244 C190.717896,32.009302 191.786849,29.5458809 192.876492,27.653488 C193.844758,25.9721272 194.647507,25.3735131 195.076468,25.3735131 L195.076468,25.3735131 Z M129.473054,93.1975923 C129.495123,92.6320813 129.525467,92.018295 129.569605,91.3520954 C129.649604,90.092799 129.826154,88.7659171 130.093737,87.4086907 C130.355803,86.0776709 130.744764,84.7356167 131.250966,83.4183899 C131.735098,82.1632313 132.37785,81.03083 133.166806,80.0501512 C133.924039,79.1080926 134.884029,78.3301701 136.020568,77.7315561 C137.126763,77.1522521 138.504679,76.857083 140.118454,76.857083 C140.304659,76.857083 140.871549,76.857083 141.541886,78.035001 C142.129466,79.0667137 142.427394,80.4432503 142.427394,82.124611 C142.427394,83.1949441 141.974985,84.3521727 141.081202,85.5673317 C140.085351,86.9217995 138.838468,88.1976475 137.373657,89.3631519 C135.908845,90.5272769 134.300587,91.4941628 132.594399,92.2376029 C131.492342,92.7162183 130.448216,93.0375941 129.473054,93.1975923 L129.473054,93.1975923 Z M65.425485,54.9676693 C65.8903074,52.1952861 66.1399598,50.0173791 66.1840973,48.2753294 L66.1840973,47.6960254 C66.1840973,45.9043211 65.7399642,44.3912343 64.859974,43.1912475 C63.8723986,41.8409176 62.1124181,41.1871317 59.4834816,41.1871317 C57.6035023,41.1871317 55.9635204,41.6147132 54.6159491,42.4533247 C53.3332046,43.2519365 52.2187341,44.3043387 51.3015029,45.5843246 C50.4132368,46.8215523 49.6946241,48.2132611 49.1608368,49.7194514 C48.6491184,51.1677113 48.2505021,52.6311434 47.9815395,54.0725068 C47.7153356,55.4918015 47.5249928,56.8366142 47.4160285,58.0655662 C47.3112021,59.2434842 47.2353409,60.1745084 47.1898241,60.8820868 C47.133273,60.8751903 47.0739633,60.8669146 47.0132743,60.8586388 C46.1856973,60.7538124 45.2836382,60.6255379 44.3084766,60.4793326 C43.3071083,60.3262309 42.3484982,60.1938186 41.4326463,60.0862335 C40.4533467,59.9689934 39.7968022,59.9165802 39.4712886,59.9165802 C38.4423344,59.9165802 37.5844129,60.2172666 36.9237305,60.8076049 C36.3678746,61.3027718 35.9347759,61.9124203 35.6382274,62.6199987 C35.3775407,63.2517158 35.2037495,63.9399841 35.1251297,64.6696312 C35.0547856,65.327555 35.0216825,65.8889281 35.0216825,66.3578885 C35.0216825,68.5868294 36.0727054,70.5481871 38.1444067,72.1867897 C39.8354225,73.5233266 42.1636727,74.9108975 45.2491559,76.4129499 C45.2408801,77.3053539 45.2201907,78.4391345 45.1884669,79.8101538 C45.1484673,81.6611679 45.0505374,83.7756273 44.9015735,86.1604286 C44.7539889,88.5479884 44.5484739,91.1093395 44.2960629,93.8389645 C44.0422726,96.5354865 43.6974489,99.2582151 43.2767638,101.923013 C42.8560788,104.568501 42.3250502,107.160197 41.693333,109.618101 C41.0726502,112.041522 40.3416238,114.19874 39.5181846,116.026306 C38.7319864,117.77939 37.8257895,119.183512 36.8285591,120.201432 C35.9720169,121.074526 35.0258204,121.49797 33.9375566,121.49797 C31.3734469,121.49797 29.2507117,120.751771 27.4507316,119.216616 C25.5735109,117.618012 24.0149074,115.488381 22.8163,112.893927 C21.5832101,110.222232 20.6673582,107.165714 20.0894335,103.804372 C19.5046124,100.397513 19.2080639,96.9589301 19.2080639,93.5768985 C19.2080639,89.1631541 19.624611,84.4542405 20.4439123,79.5811908 C21.2618344,74.7164169 22.5928541,69.8447465 24.3969722,65.1013506 C26.1969523,60.3703683 28.5720985,55.7869706 31.4631011,51.4752941 C34.3306557,47.1925827 37.8533754,43.3774524 41.9278132,40.1333503 C45.9939752,36.8961446 50.7884051,34.2851389 56.1759319,32.3706773 C61.5593207,30.4589742 67.7827003,29.4893298 74.6722795,29.4893298 C78.3825834,29.4893298 81.6722022,29.9127734 84.4487233,30.7486262 C87.2004171,31.5803412 89.5259087,32.6975702 91.3603712,34.0741068 C93.1631099,35.425816 94.5382672,36.9926953 95.4444641,38.7319864 C96.3465231,40.4588639 96.8030698,42.2822921 96.8030698,44.1526162 C96.8030698,46.086388 96.3051442,48.1346413 95.3217068,50.2394456 C94.3548209,52.3111469 92.6155298,54.2669874 90.1562466,56.0517953 C87.6376537,57.8793613 84.1466577,59.4214133 79.77843,60.6365723 C75.7012336,61.7703529 70.5206012,62.4448282 64.3592898,62.6406881 C64.6903207,59.7896851 65.0475581,57.2145411 65.425485,54.9676693 L65.425485,54.9676693 Z" id="Shape"></path>
        </g>
    </g>
</svg>